<svg version="1.2" xmlns="http://www.w3.org/2000/svg" viewBox="0 0 528 352" width="528" height="352">
	<title>logo-svg</title>
	<style>
		.s0 { fill: #ffffff } 
	</style>
	<path id="Layer" fill-rule="evenodd" class="s0" d="m222.8 242.7c3.5-4.8 7.9-5.9 13.5-5.8 31.3 0.2 62.6 0.1 93.9 0 3.1 0 5.5 0.6 7.3 3.1 7.7 10.9 18 13.7 31.3 13.3 34.8-0.9 69.6-0.4 104.4-0.2 4.7 0 6.4-1.2 5.9-5.9-0.4-3.1-0.1-6.3-0.1-9.8 4.8 0 9.5 0 14.9 0 0 7.4 0.4 15.2-0.2 22.9-0.3 4.6-5.2 7.7-10.2 7.7-12 0-24 0-36.5 0 0 9.7 0 19.1 0 28.5 0 6.8-2.7 9.5-9.5 9.5-63 0-126-0.1-188.9 0.1-5.8 0.1-9.5-3.5-9.6-9.6-0.1-9.3 0-18.6 0-28.2-7.6 0-15 0-23 0 0 9.3 0 18.8 0 28.2 0 6.6-2.8 9.5-9.4 9.5-32.4 0-64.7-0.2-97 0.1-5.8 0.1-9.5-3.5-9.6-9.6-0.1-9.3 0-18.6 0-28.2-5.3 0-10.3 0-15.8 0 0 1.3-0.2 2.8-0.2 4.2q0 31.5 0 63c0 6.8-2.6 9.4-9.4 9.5q-9.8 0.1-19.5 0c-5-0.1-9.1-4-9.1-9 0-32.8 0-65.6 0-98.7 4.9 0 9.7 0 15 0 0 1.6 0 3.4 0 5.2 0 27.5 0 54.9-0.1 82.4 0 3.4 0.5 5.2 4.6 5.2 4 0 4.6-1.7 4.6-5.1-0.1-25.8-0.1-51.7-0.1-77.5 0-3.3 0-6.6 0-10.2 4.6 0 9 0 14 0 0 3.7 0.2 7.5-0.1 11.2-0.2 3.6 1.2 4.6 4.7 4.6 14.6-0.2 29.3-0.1 44-0.1 23.6 0 47.3-0.2 70.9 0.2 6.6 0.1 11.6-1.4 15.5-6.7 1-1.3 2.3-2.3 3.8-3.8zm55.5 33.3c0.9 0.9 2.5 1.8 2.6 2.9 0.3 3.9 0.1 7.9 0.1 12.1 1.2 0 2.1-0.1 2.8 0 4.6 0.7 6.9-0.8 6.3-5.9-0.4-2.9-0.1-5.9-0.1-8.8 4.9 0 9.3 0 14 0 0 3.5 0.2 6.8 0 10.1-0.3 3.4 0.9 5 4.5 4.6 1.4-0.1 2.8 0 4.6 0 0-5.3 0-10 0-14.7 4.9 0 9.3 0 13.9 0 0 3.6 0.2 6.9-0.1 10.2-0.2 3.5 1.1 4.9 4.6 4.5 1.4-0.2 2.9-0.1 4.7-0.2 0-5.1 0-9.9 0-14.5 5.1 0 9.9 0 15 0q0 7.5 0 14.4c2.8 0 5.2 0 8 0q0-7.5 0-14.4c5.2 0 9.9 0 15 0 0 5.1 0 9.8 0 14.4 2.8 0 5.2 0 7.6 0 0.4-5 0.8-9.8 1.2-14.3 4.5 0 9.2 0 14.3 0 0 5.1 0 9.8 0 14.6 1.3 0 2.1-0.1 2.9 0 4.7 0.8 6.4-1.1 5.9-5.8-0.4-2.9-0.1-5.9-0.1-9 4.8 0 9.2 0 14 0 0 5 0 9.7 0 14.6 4.2 0 7.9 0 11.8 0 0-7.6 0-15 0-22.6-59.3 0-118.4 0-177.6 0 0 7.6 0 15 0 22.8 3 0 5.8-0.2 8.6 0 3.4 0.3 4.4-1.2 4.2-4.4-0.2-3.4 0-6.9 0-10.6 3.8 0 7.1 0 11.3 0zm-150.3 6.5c0-2.1 0-4.2 0-6.2 5 0 9.4 0 14.2 0 0 5 0 9.8 0 14.7 1.2 0 2-0.1 2.8 0 4.9 0.8 6.6-1.2 6.1-6.1-0.4-2.8-0.1-5.8-0.1-8.6 5 0 9.4 0 14 0 0 3.8 0.1 7.3 0 10.7-0.2 3.1 1.1 4.3 4.1 4 1.6-0.1 3.1-0.1 5.1-0.2 0-5.2 0-9.9 0-14.5 4.8 0 9.2 0 13.8 0 0 4.5-1.3 9.2 0.3 12.6 2.3 4.6 7.8 1.2 11.8 2 0.2 0.1 0.5-0.3 0.6-0.4q0-11.3 0-22.2c-28.7 0-57.1 0-85.7 0 0 6.6-0.1 12.9 0.1 19.2 0 1.2 1 3 2 3.4 7.1 2.4 10.9-0.3 10.9-8.4zm199-30.5c-2.2-4.6-4.9-8.1-10.9-8.1-21.8 0.2-43.5 0.5-65.3-0.1-7.2-0.2-11.8 2.3-15.6 8.1 1.5 0.4 2.9 1.1 4.3 1.1 29-0.1 58.1-0.2 87.5-1z"/>
	<path id="Layer" fill-rule="evenodd" class="s0" d="m61 94c0 11.8 0 23.1 0 34.7-5 0-9.7 0-14.8 0 0-23 0-46.1 0-69.7-7.7 0-15-0.3-22.2 0.1-5.7 0.3-8.6-3.5-8.9-8.7-0.4-7-0.2-14-0.1-21 0.1-4.3 4.2-8.3 8.6-8.4q26.3-0.1 52.5 0c4.9 0 7.8 3.1 7.9 8.1 0.1 5.8 0.3 11.7-0.1 17.5-0.3 4.6 1.5 6 5.7 5.4 0.8-0.1 1.7 0 2.5 0q195.8 0 391.5 0c7 0 10.4 3.4 10.4 10.5 0 20.5-0.1 41 0.1 61.5 0 4-1.2 5.4-5.2 5.1-3.1-0.3-6.2-0.1-9.7-0.1-0.1-1.7-0.2-3.1-0.2-4.6 0-17.5-0.1-35 0.1-52.5 0-3.5-0.8-5-4.7-5-40.3 0.1-80.7 0.1-121 0.2-1.7 0-3.8 1-5.1 2.2-6.7 6.1-13.1 12.5-19.9 18.6-1.5 1.3-4.1 2-6.2 2-27.2 0.1-54.4 0.2-81.5 0-2.5-0.1-5.4-1.5-7.3-3.2-6.4-5.9-12.4-12.3-18.8-18.4-0.9-0.9-2.6-1.2-4-1.2-40.6-0.1-81.3-0.1-121.9-0.2-3.9 0-4.8 1.4-4.8 5 0.2 18.8 0.1 37.6 0.1 56.8-4.5 0-8.9 0-14 0 0-1.6 0-3.4 0-5.1 0-27.3-0.1-54.7 0.1-82 0-4.3-1-5.9-5.6-5.7-9.9 0.3-20 0.2-29.9 0.1-3-0.1-4.7 0.4-4.7 4 0 3.5 1.6 4.1 4.6 4 5.7-0.1 11.4-0.1 17 0 6.9 0.1 9.5 2.7 9.5 9.5 0 13.3 0 26.7 0 40.5zm216.5-27q-21.2 0-42.4 0c0.7 1.8 1.9 2.2 2.3 3.1 2.2 4.5 5.9 5 10.3 5 22.9-0.2 45.7-0.3 68.5 0.1 6.3 0.1 8.8-3.5 12.5-8.2-17.4 0-33.8 0-51.2 0z"/>
	<path id="Layer" class="s0" d="m230.7 102.2c10.4 6.7 18 15.4 23.9 27-6.8-1.5-13.4 2.5-19-2.8-0.8-0.8-3.2-0.7-4.2 0-5.9 3.7-12.4 2.4-18.7 2.6-3.1 0.1-6.2 0-9.8-1.2 5.9-4.6 11.9-9.2 18.1-14-5.7-4.4-12.6-6.7-19.9-7.7-3.9-0.6-6.6 3.2-7.1 9.3-0.4 4.4-0.9 8.8-1.4 13.4-4.6 0-9.4 0-15.1 0 0.9-6.3 1.5-12.4 2.8-18.3 0.8-3.4-0.6-4.2-3-3.1-6.6 3-13.1 6.5-19.9 9.9 2.2 4.5 3.8 7.8 5.5 11.3q-15.7 0-31.4 0c14-32.1 60.8-51.2 99.2-26.4z"/>
	<path id="Layer" class="s0" d="m421.7 106.2c7.4 6.5 13.5 13.5 18.3 22.8-5.8 0-10.4 0.1-15-0.1-1 0-1.9-1-3-1.3-1.9-0.5-4.4-1.8-5.7-1.1-8.8 5-18.1 1.2-27 2.7q-0.4-0.8-0.8-1.5c5.9-4.5 11.8-9.1 18.2-14-6.9-4-13.5-7.2-21-7.5-1.5-0.1-4.1 2.2-4.5 3.8-1.8 6-2.8 12.2-4.2 18.7-4 0-8.7 0-14.4 0 1.1-7.2 2.2-14.2 3.4-21.8-8 1.6-14.8 5.1-20.8 9.8-1 0.7-0.7 3.8-0.2 5.6 0.5 2.1 2 3.9 3.4 6.4-10.7 0-20.9 0-31.4 0 3.6-9.1 10-16.1 17.2-22.2 7.8-6.5 16.8-11.1 26.8-13.5 12-2.9 23.9-2.9 35.8 0.3 9.1 2.5 17.2 7 24.9 12.9z"/>
	<path id="Layer" fill-rule="evenodd" class="s0" d="m60.8 171.6c3.1 9.9-1.1 16.6-7.7 21.6-1.6 1.2-1.7 4.6-2.6 7.6-8.7 0.9-9 0.8-10.8-5.5-8.4-0.8-8.4-0.8-9 5.7q-2.4 0-4.9 0c-1.4 0-2.9 0-4.6 0 0-13.7 0-27.1 0-41 8.8 0 17.6-0.7 26.3 0.2 6.1 0.7 10.5 5.3 13.3 11.4zm-21.4-2.6q-4.2 0-8.1 0c0 6.1 0 11.5 0 17 4.2 0 8 0 11.8 0 4.8-0.1 7.8-3 8.7-7.2 1-4.4-1.7-7.5-5.7-9.1-1.8-0.7-3.9-0.5-6.7-0.7z"/>
	<path id="Layer" fill-rule="evenodd" class="s0" d="m274 173c0-4.5 0-8.4 0-13 8.9 0 17.7-0.3 26.4 0.1 6 0.3 13.4 8.2 14.6 14.2 1.3 6.6-1.9 14.1-7.4 17.7-4.1 2.7-4.3 3.4-2.6 8.7-3.2 0-6.2 0-9.8 0-1-4.3-3.7-7.3-8.7-5.5-1.5 0.5-2.3 3.1-4 5.6-1.8 0-4.9 0-8.5 0 0-9.1 0-18.2 0-27.8zm30 9.2c2.7-7.2 0-12.6-6.9-13.1-4.3-0.4-8.5-0.1-12.9-0.1 0 5.8 0 11.2 0 17.2 6.7-0.9 13.6 1.7 19.8-4z"/>
	<path id="Layer" fill-rule="evenodd" class="s0" d="m183 160c6.5 0.5 12.6-1.3 18.4 2 6.1 3.6 10.1 8.4 9.5 15.7-0.3 4.9-0.6 9.8-2.1 14.4-1.9 6.1-7.6 8.3-13.3 8.8-7.6 0.5-15.3 0.1-23.2 0.1 0-13.6 0-27 0-41 3.3 0 6.8 0 10.7 0zm8.2 9c-2.9 0-5.9 0-9.2 0 0 6.5 0 12.6 0 18.8 0 1.2 0 2.5 0 4.2 2.5 0 4.6 0.1 6.7 0 2.9-0.3 6-0.3 8.7-1.2 3.9-1.5 5.1-7.9 4.5-12.5-0.8-6.3-3.2-8.2-10.7-9.3z"/>
	<path id="Layer" class="s0" d="m124 198.8c0-13.1 0-25.7 0-38.3 6.5-2 10.3 0.4 13.2 5.9 2.1 4 5.1 7.5 7.7 11.2 0.5 0.7 1.5 1.2 3 2.4 0-7.2 0-13.3 0-19.7 3 0 5.8 0 8.8 0 0 13.3 0 26.7 0 40.1-7.8 1.5-8.6 1-12.6-5.8-2.6-4.5-5.7-8.7-8.5-13q-0.7 0.2-1.4 0.5c0 6.2 0 12.3 0 19.8-3.9-1-7.1-1.8-10.2-3.1z"/>
	<path id="Layer" class="s0" d="m102.8 192c7.3 0 7.3 0 7.1 8.7-11.4 0-22.8 0-34.6 0 0-13.2 0-26.6 0-40.3 11.3 0 22.8 0 34.7 0 0 1.5-0.1 2.9 0 4.4 0.4 3.3-1.1 4.3-4.3 4.3-6.8-0.2-13.6-0.1-20.4-0.1-0.1 0.9-0.3 1.3-0.3 1.8-0.2 8.2-0.2 8.2 7.9 8.2 3.8 0 7.7 0 11.8 0 0 2.6 0 5 0 8-5.1 0-10.3 0.1-15.6 0-3.4-0.2-4.6 1.2-3.9 5 5.6 0 11.4 0 17.6 0z"/>
	<path id="Layer" class="s0" d="m243.1 179c3.8 0 7.1 0 10.6 0 0 2.7 0 5.1 0 8-5 0-10.1 0.1-15.2 0-3.5-0.2-5.1 0.9-4.2 5 5.5 0 11.1 0 16.7 0 8.3 0 8.3 0 7.8 8.7-11.4 0-22.8 0-34.5 0 0-13.3 0-26.7 0-40.4 11.3 0 22.7 0 34.7 0 0 1.4-0.1 2.8 0 4.2 0.4 3.5-1.1 4.7-4.6 4.6-6.6-0.3-13.2-0.1-19.8-0.1-1.7 9.9-1.6 10 8.5 10z"/>
	<path id="Layer" fill-rule="evenodd" class="s0" d="m382 201c-1.9 0-3.4 0-5.1 0 4.6-13 9-25.5 13.7-37.9 0.5-1.4 2.9-2.7 4.7-3 2.9-0.5 5.9-0.1 9.2-0.1 4.9 13.5 9.8 26.9 15 41.5-4.4-1.9-9.7 2.7-11.8-4.1-0.1-0.4-1.8-0.4-2.8-0.4-3.7 0-7.3 0-11 0-2.6 0-5.1-0.5-6.6 2.8-0.4 1-3.2 0.8-5.3 1.2zm15.8-13q2.4 0 4.8 0c0.5-5.8-2.3-11.5-4.7-10.3-2.6 1.3-3.9 5.2-6 8.5 2.4 0.8 3.7 1.3 5.9 1.8z"/>
	<path id="Layer" class="s0" d="m499.1 192c4.3-1.3 8.2-2.6 13-4.2 0.6 1.7 3.4 5.3 2.5 7.1-1.3 2.5-5.1 4.2-8.2 5.1-17.4 5.3-30.9-8.3-29.2-22.3 2.1-17.1 21.1-24.7 35.4-15.6 0.8 0.5 1.5 1 2.4 1.6-1.1 3-2.1 6-3.3 9.4-6.3-5.3-12.9-8.6-20.3-2.9-4.1 3.2-5.6 8.1-4.2 12.8 1.6 5.2 5.6 8.6 11.9 9z"/>
	<path id="Layer" class="s0" d="m351.9 201c-16.4 1.7-28.3-14-22.8-28.7 5.1-13.5 22.1-18.4 34.4-10.1 0.9 0.6 1.6 2.7 1.3 3.8-0.5 2.4-1.8 4.7-2.9 7.1-9-8.4-14.9-6.7-20-2.5-7 5.8-5.6 11.5-2 16.6 4.7 6.6 11.6 6.4 22.4-0.1 0.1 0.1 0.3 0.1 0.4 0.2 4.5 9.5 1.5 13.5-10.8 13.7z"/>
	<path id="Layer" class="s0" d="m442 176c0 5.5 0 10.4 0 16 4.8 0 9.4 0 14 0 8.3 0 8.3 0 7.8 8.7-10.4 0-20.8 0-31.5 0 0-13.3 0-26.7 0-40.4 3 0 6.1 0 9.7 0 0 5 0 10.1 0 15.7z"/>
</svg>